HIERARCHY
ROOT Hips
{
	OFFSET 0.000000 0.000000 0.000000
	CHANNELS 6 Xposition Yposition Zposition Xrotation Yrotation Zrotation
	JOINT LeftUpLeg_virtual
	{
		OFFSET 0.000000 0.000000 0.000000
		CHANNELS 3 Xrotation Yrotation Zrotation
		JOINT LeftUpLeg
		{
			OFFSET 15.427100 -6.655098 0.678600
			CHANNELS 3 Xrotation Yrotation Zrotation
			JOINT LeftLeg
			{
				OFFSET 4.081073 -39.591068 13.024000
				CHANNELS 3 Xrotation Yrotation Zrotation
				JOINT LeftFoot
				{
					OFFSET -4.081074 -37.707932 -15.979700
					CHANNELS 3 Xrotation Yrotation Zrotation
					JOINT LeftToeBase
					{
						OFFSET 5.346399 -15.068900 20.645000
						CHANNELS 3 Xrotation Yrotation Zrotation
						JOINT LeftToe_End
						{
							OFFSET 2.754700 0.931300 11.300900
							CHANNELS 3 Xrotation Yrotation Zrotation
							End Site
							{
								OFFSET 0 0 0
							}
						}
					}
				}
			}
		}
	}
	JOINT RightUpLeg_virtual
	{
		OFFSET 0.000000 0.000000 0.000000
		CHANNELS 3 Xrotation Yrotation Zrotation
		JOINT RightUpLeg
		{
			OFFSET -15.569500 -6.655098 0.678600
			CHANNELS 3 Xrotation Yrotation Zrotation
			JOINT RightLeg
			{
				OFFSET -4.081825 -39.591045 13.023800
				CHANNELS 3 Xrotation Yrotation Zrotation
				JOINT RightFoot
				{
					OFFSET 4.081824 -37.707954 -15.979600
					CHANNELS 3 Xrotation Yrotation Zrotation
					JOINT RightToeBase
					{
						OFFSET -5.346400 -15.068900 20.645000
						CHANNELS 3 Xrotation Yrotation Zrotation
						JOINT RightToe_End
						{
							OFFSET -2.754700 0.931300 11.300900
							CHANNELS 3 Xrotation Yrotation Zrotation
							End Site
							{
								OFFSET 0 0 0
							}
						}
					}
				}
			}
		}
	}
	JOINT Spine_virtual
	{
		OFFSET 0.000000 0.000000 0.000000
		CHANNELS 3 Xrotation Yrotation Zrotation
		JOINT Spine
		{
			OFFSET -0.279200 12.230698 -2.892100
			CHANNELS 3 Xrotation Yrotation Zrotation
			JOINT Spine1
			{
				OFFSET -0.232667 10.192268 -1.242267
				CHANNELS 3 Xrotation Yrotation Zrotation
				JOINT Spine1_split
				{
					OFFSET -0.232667 10.192268 -1.242267
					CHANNELS 3 Xrotation Yrotation Zrotation
					JOINT Spine2
					{
						OFFSET -0.232667 10.192268 -1.242267
						CHANNELS 3 Xrotation Yrotation Zrotation
						JOINT Neck_virtual
						{
							OFFSET 0.000000 0.000000 0.000000
							CHANNELS 3 Xrotation Yrotation Zrotation
							JOINT Neck
							{
								OFFSET -0.418800 17.814194 8.416900
								CHANNELS 3 Xrotation Yrotation Zrotation
								JOINT Head
								{
									OFFSET 0.000000 7.031097 3.806800
									CHANNELS 3 Xrotation Yrotation Zrotation
									JOINT HeadTop_End
									{
										OFFSET 0.000000 24.646606 12.978600
										CHANNELS 3 Xrotation Yrotation Zrotation
										End Site
										{
											OFFSET 0 0 0
										}
									}
								}
							}
						}
						JOINT LeftShoulder_virtual
						{
							OFFSET 0.000000 0.000000 0.000000
							CHANNELS 3 Xrotation Yrotation Zrotation
							JOINT LeftShoulder
							{
								OFFSET 8.476499 7.247704 -3.868750
								CHANNELS 3 Xrotation Yrotation Zrotation
								JOINT LeftShoulder_split
								{
									OFFSET 8.476499 7.247704 -3.868750
									CHANNELS 3 Xrotation Yrotation Zrotation
									JOINT LeftArm
									{
										OFFSET 9.308998 -2.777710 0.208600
										CHANNELS 3 Xrotation Yrotation Zrotation
										JOINT LeftForeArm
										{
											OFFSET 29.972298 0.000000 0.000000
											CHANNELS 3 Xrotation Yrotation Zrotation
											JOINT LeftHand
											{
												OFFSET 26.026505 0.000000 0.000000
												CHANNELS 3 Xrotation Yrotation Zrotation
												End Site
												{
													OFFSET 0 0 0
												}
											}
										}
									}
								}
							}
						}
						JOINT RightShoulder_virtual
						{
							OFFSET 0.000000 0.000000 0.000000
							CHANNELS 3 Xrotation Yrotation Zrotation
							JOINT RightShoulder
							{
								OFFSET -7.570500 7.247704 -3.868750
								CHANNELS 3 Xrotation Yrotation Zrotation
								JOINT RightShoulder_split
								{
									OFFSET -7.570500 7.247704 -3.868750
									CHANNELS 3 Xrotation Yrotation Zrotation
									JOINT RightArm
									{
										OFFSET -9.308998 -2.777710 0.208500
										CHANNELS 3 Xrotation Yrotation Zrotation
										JOINT RightForeArm
										{
											OFFSET -29.972300 0.000000 0.000000
											CHANNELS 3 Xrotation Yrotation Zrotation
											JOINT RightHand
											{
												OFFSET -26.026505 0.000000 0.000000
												CHANNELS 3 Xrotation Yrotation Zrotation
												End Site
												{
													OFFSET 0 0 0
												}
											}
										}
									}
								}
							}
						}
					}
				}
			}
		}
	}
}
MOTION
Frames: 11
Frame Time: 0.03333333
-2.541673 77.448730 -6.149971 0.000000 0.000000 0.000000 1.690181 -53.019125 4.776874 -32.088037 16.458280 28.254218 42.134310 -1.896937 -7.839509 -10.922530 9.762783 -15.615050 3.766519 1.301853 -3.131958 0.000000 0.000000 0.000000 0.669081 -50.660558 4.201342 -26.826594 -2.895595 -26.700953 45.818545 11.677830 -4.204264 -20.259907 -6.941981 32.348838 7.822322 6.337131 -14.662686 0.000000 0.000000 0.000000 -2.985571 -45.051839 0.267343 10.398137 -3.352929 -1.062044 7.480002 -1.668124 -7.375014 0.298666 -0.486866 0.217479 0.000000 0.000000 0.000000 10.535129 0.404086 -5.028161 -1.776092 26.004695 -0.720919 -36.669199 -11.716304 10.086938 0.000000 0.000000 0.000000 10.065724 -1.021372 -6.141184 1.393131 -8.314545 -6.660290 5.667153 -11.600882 1.657468 -44.058443 17.204316 -30.406052 35.436469 -34.670587 22.539095 0.000000 0.000000 0.000000 7.752204 -2.206200 -6.733115 -7.193357 3.510714 1.777760 9.431594 -5.913958 5.863839 -51.160371 -5.945085 41.697362 93.050399 71.598332 -83.587035 0.000000 0.000000 0.000000 
-2.840787 77.281227 -6.464710 0.000000 0.000000 0.000000 1.691385 -53.100261 4.790396 -31.884409 16.668204 28.133537 42.494387 -2.134844 -7.668942 -11.540008 9.788452 -15.121038 3.527692 1.260053 -3.344495 0.000000 0.000000 0.000000 0.782165 -50.542696 4.139128 -26.723535 -3.245017 -26.640413 46.157746 11.791931 -4.128417 -20.911616 -7.343329 31.339363 9.574822 6.246058 -14.606593 0.000000 0.000000 0.000000 -2.985499 -44.915928 0.424254 10.397224 -3.586343 -1.195870 7.249700 -1.480210 -7.246669 0.080741 -0.403271 0.310925 0.000000 0.000000 0.000000 10.203776 0.439626 -4.921563 -3.169898 25.785006 0.529124 -36.907556 -12.258003 8.940599 0.000000 0.000000 0.000000 9.816887 -0.825259 -6.196772 1.493346 -7.728825 -6.451559 6.570451 -11.656969 1.934958 -45.154060 16.957406 -31.554610 36.338007 -33.269028 22.851559 0.000000 0.000000 0.000000 7.621342 -2.037011 -6.747132 -7.577981 3.932015 2.075269 9.307061 -4.630212 5.323577 -48.450493 -6.998097 41.625273 100.588046 72.236497 -91.072841 0.000000 0.000000 0.000000 
-3.413371 77.184807 -6.695744 0.000000 0.000000 0.000000 1.425374 -53.160189 4.480777 -31.554480 16.540203 28.115145 43.255643 -2.791589 -7.438771 -11.801670 9.345660 -14.763280 3.213811 1.186729 -3.626522 0.000000 0.000000 0.000000 0.654228 -50.408702 3.787804 -25.944581 -4.000118 -26.593521 46.064790 12.126860 -4.046934 -21.145671 -8.130941 31.262811 9.292333 6.210835 -14.185888 0.000000 0.000000 0.000000 -3.025162 -44.760907 0.372795 10.225782 -3.794483 -1.145331 7.028672 -1.443482 -6.928086 -0.015905 -0.355908 0.290195 0.000000 0.000000 0.000000 9.722773 0.398410 -4.610522 -4.413182 26.101884 2.063393 -37.697931 -10.443218 7.786840 0.000000 0.000000 0.000000 9.571136 -0.818307 -6.013242 1.571174 -6.457722 -5.861496 6.296256 -11.625539 1.832468 -43.938344 16.850012 -30.938786 35.498289 -34.995106 22.614321 0.000000 0.000000 0.000000 7.331452 -2.022294 -6.479861 -8.020912 4.006570 2.234602 9.792632 -3.484783 4.675872 -42.085904 -7.451959 41.145886 107.598033 71.871062 -98.778831 0.000000 0.000000 0.000000 
-4.153480 77.371254 -6.713917 0.000000 0.000000 0.000000 0.919899 -52.831319 3.858121 -30.920584 16.205131 28.051283 43.644844 -3.690544 -7.157564 -11.666357 8.503529 -14.564349 2.308874 1.086434 -3.554783 0.000000 0.000000 0.000000 0.259514 -50.184671 3.154135 -24.211354 -5.188981 -26.439555 45.262147 12.448626 -3.876419 -21.142400 -9.386087 31.782861 7.421204 6.153155 -13.478023 0.000000 0.000000 0.000000 -3.005891 -44.504478 0.205530 9.936829 -3.886075 -1.030825 6.818263 -1.521920 -6.528028 0.059239 -0.287195 0.189464 0.000000 0.000000 0.000000 9.161064 0.323350 -4.177762 -5.341411 26.627665 3.942151 -38.584254 -6.374486 7.042320 0.000000 0.000000 0.000000 9.273616 -0.884629 -5.646433 1.584457 -4.354312 -4.678024 5.447441 -11.685634 1.704926 -40.990991 17.771637 -28.072863 33.463894 -40.670355 22.284003 0.000000 0.000000 0.000000 6.937998 -2.103561 -6.017872 -8.523753 3.543289 2.133734 10.254653 -3.091614 4.003508 -33.771744 -7.376228 40.104695 110.297788 70.922212 -102.904887 0.000000 0.000000 0.000000 
-5.062549 78.067421 -6.453705 0.000000 0.000000 0.000000 0.318043 -52.096209 3.024243 -29.677035 15.735921 27.707899 42.948165 -4.598529 -6.828886 -11.225834 7.466777 -14.337865 1.027851 0.909947 -3.021694 0.000000 0.000000 0.000000 -0.157502 -49.690675 2.441413 -21.335957 -6.850192 -26.002433 43.201855 12.493055 -3.493726 -21.167144 -11.025978 32.185357 5.814418 5.916102 -12.750745 0.000000 0.000000 0.000000 -2.881053 -44.060355 0.032609 9.583149 -3.778347 -0.993784 6.548712 -1.580364 -6.109017 0.223856 -0.204824 0.094327 0.000000 0.000000 0.000000 8.632211 0.301828 -3.726078 -5.865536 26.974811 6.242130 -39.291671 -0.991503 6.927047 0.000000 0.000000 0.000000 8.820665 -0.881815 -5.174709 1.404415 -1.397232 -2.921048 4.043700 -11.885204 1.745086 -37.648662 20.562010 -22.878475 30.680639 -49.587231 21.835544 0.000000 0.000000 0.000000 6.436273 -2.134951 -5.434382 -9.136891 2.508651 1.582521 10.478026 -4.223171 3.747061 -25.060973 -7.010835 38.373307 107.996335 69.850193 -102.679600 0.000000 0.000000 0.000000 
-6.126549 79.402016 -5.920456 0.000000 0.000000 0.000000 -0.237247 -50.914815 2.122533 -27.847900 15.279171 27.050249 40.918820 -5.289207 -6.520899 -10.538087 6.549068 -13.902890 0.463152 0.632979 -2.350046 0.000000 0.000000 0.000000 -0.491537 -48.889285 1.702554 -17.414822 -8.915628 -25.188090 39.504749 12.230571 -2.748587 -21.297759 -12.765900 32.020463 5.662770 5.528705 -12.221634 0.000000 0.000000 0.000000 -2.453480 -43.429997 -0.052813 9.233004 -3.446674 -1.172841 6.130625 -1.509369 -5.719831 0.259446 -0.154301 0.033213 0.000000 0.000000 0.000000 8.265589 0.406713 -3.353146 -5.840765 26.844462 8.864161 -39.781026 4.217686 7.360476 0.000000 0.000000 0.000000 8.121142 -0.703313 -4.646215 0.880396 2.410390 -0.501010 2.555683 -11.923208 2.184508 -35.572520 24.985932 -15.919953 27.312286 -60.005657 20.882716 0.000000 0.000000 0.000000 5.856213 -2.048345 -4.814488 -9.906765 0.906466 0.573401 10.396377 -6.380930 3.444613 -17.379775 -6.764355 35.995121 102.381168 68.742582 -99.477689 0.000000 0.000000 0.000000 
-7.336385 81.276215 -5.188496 0.000000 0.000000 0.000000 -0.551238 -49.462925 1.327881 -25.690759 14.955387 26.247362 37.745879 -5.747627 -6.259449 -9.466026 5.888493 -13.393030 0.799868 0.298462 -1.557153 0.000000 0.000000 0.000000 -0.511242 -47.801680 1.113987 -12.812378 -11.209295 -23.976486 34.230541 11.845467 -1.723438 -21.200154 -14.185596 31.446618 6.542934 5.208022 -12.080110 0.000000 0.000000 0.000000 -1.821636 -42.591680 -0.067843 8.953068 -2.900773 -1.589360 5.489631 -1.275540 -5.356496 0.195409 -0.099410 0.011216 0.000000 0.000000 0.000000 8.065407 0.669036 -3.108311 -5.130031 26.241916 11.590594 -40.000600 8.246789 8.098029 0.000000 0.000000 0.000000 7.216177 -0.368598 -4.154055 -0.074980 6.730469 2.521053 1.281039 -12.217762 3.412494 -35.704534 30.012821 -7.840045 23.415482 -69.809444 18.984620 0.000000 0.000000 0.000000 5.273223 -1.806904 -4.218212 -10.822970 -1.163591 -0.809211 10.170185 -8.002671 2.943785 -11.010759 -7.345037 33.386173 96.127980 67.540312 -95.581893 0.000000 0.000000 0.000000 
-8.573090 83.498215 -4.313290 0.000000 0.000000 0.000000 -0.486088 -47.966038 0.758716 -23.466780 14.774090 25.331785 33.921889 -5.900686 -6.049557 -7.993356 5.599576 -12.780782 1.748144 -0.049350 -0.746896 0.000000 0.000000 0.000000 -0.241700 -46.767852 0.682281 -8.111218 -13.283179 -22.473740 27.878681 11.630277 -0.559748 -20.273139 -14.823852 31.078245 7.247450 5.143190 -12.337092 0.000000 0.000000 0.000000 -1.056808 -41.544612 -0.058979 8.740759 -2.193966 -2.191448 4.662528 -0.934192 -5.012035 0.132034 -0.041810 -0.035073 0.000000 0.000000 0.000000 7.950812 1.054606 -2.994820 -3.744195 25.330371 14.028590 -39.916425 10.509526 8.741127 0.000000 0.000000 0.000000 6.245821 -0.015730 -3.791676 -1.418298 11.006910 5.899232 0.480223 -12.373087 4.878116 -38.104348 34.230261 0.510146 16.767235 -76.280611 13.831597 0.000000 0.000000 0.000000 4.727492 -1.434630 -3.680641 -11.813196 -3.558119 -2.297288 9.920252 -9.186531 2.138141 -5.698026 -9.046364 31.046942 91.917196 66.462891 -93.220860 0.000000 0.000000 0.000000 
-9.786191 85.793900 -3.441143 0.000000 0.000000 0.000000 -0.161474 -46.586989 0.441131 -21.573479 14.718766 24.436720 30.137773 -5.881691 -5.827645 -6.260124 5.648873 -12.253440 2.591409 -0.332235 0.066045 0.000000 0.000000 0.000000 0.066501 -45.851104 0.342038 -3.774424 -14.658184 -20.853138 21.464351 11.827065 0.623517 -18.608068 -14.542559 31.002860 7.075904 5.372085 -12.694537 0.000000 0.000000 0.000000 -0.397223 -40.175572 -0.177267 8.649519 -1.387802 -2.866506 3.797630 -0.577334 -4.680323 0.107691 -0.003306 -0.071945 0.000000 0.000000 0.000000 7.836381 1.455885 -2.975511 -1.708639 24.361179 15.721704 -39.718728 11.219383 9.126901 0.000000 0.000000 0.000000 5.415228 0.257893 -3.573567 -3.032756 14.994675 9.428146 0.838926 -12.108582 6.301186 -41.817789 36.769272 8.059878 6.833151 -78.198419 5.025162 0.000000 0.000000 0.000000 4.371528 -1.031585 -3.240645 -12.700692 -6.043195 -3.606794 9.191827 -10.216787 1.447500 -1.305299 -12.118617 29.183622 89.865304 65.915144 -92.165289 0.000000 0.000000 0.000000 
-10.985288 87.812706 -2.611877 0.000000 0.000000 0.000000 0.168104 -45.345151 0.266103 -20.226089 14.683250 23.555349 26.993707 -5.752606 -5.543504 -4.632792 5.811930 -11.675453 2.713915 -0.535039 0.868533 0.000000 0.000000 0.000000 0.399397 -44.905161 0.173894 -0.198151 -14.869298 -19.325134 16.134932 12.451748 1.717607 -16.828883 -13.670052 30.759180 5.919805 5.744491 -12.750140 0.000000 0.000000 0.000000 -0.067955 -38.495991 -0.469672 8.726805 -0.561891 -3.439123 3.031441 -0.272649 -4.320148 0.123716 0.011735 -0.060534 0.000000 0.000000 0.000000 7.691079 1.807222 -2.985971 1.018352 23.529708 16.394455 -39.614841 10.676180 9.027353 0.000000 0.000000 0.000000 4.913617 0.365690 -3.447190 -4.728116 18.487183 12.926193 1.989276 -10.991400 6.983921 -45.559185 37.540851 14.080163 0.624813 -76.481713 -0.389999 0.000000 0.000000 0.000000 4.259303 -0.660126 -2.864450 -13.441583 -8.408774 -4.703456 8.159661 -11.025955 1.131177 1.537949 -16.533477 27.504053 89.077688 66.105480 -91.562203 0.000000 0.000000 0.000000 
-12.093204 89.266930 -1.881641 0.000000 0.000000 0.000000 0.306174 -43.982518 0.148281 -19.535845 14.529839 22.578102 24.997188 -5.490494 -5.196606 -3.304100 5.966310 -10.803992 2.494160 -0.644690 1.283296 0.000000 0.000000 0.000000 0.562825 -43.676427 0.082138 2.569360 -13.698553 -18.145227 12.801400 13.276167 2.641741 -15.435292 -12.802448 29.749610 3.921303 6.066646 -12.177298 0.000000 0.000000 0.000000 -0.132749 -36.573532 -0.911373 8.943474 0.212427 -3.788832 2.441957 -0.049449 -3.931531 0.107912 0.073170 -0.042566 0.000000 0.000000 0.000000 7.471961 2.064637 -2.981118 4.448712 22.900571 15.839765 -39.757578 9.213309 8.404402 0.000000 0.000000 0.000000 4.714723 0.368562 -3.332642 -6.314280 21.381096 16.217391 3.357520 -9.298210 7.102617 -48.819201 37.128536 18.555314 -0.999765 -72.714754 -1.347445 0.000000 0.000000 0.000000 4.326323 -0.382829 -2.570871 -13.998476 -10.621431 -5.641463 7.160433 -11.866716 1.085859 1.391053 -21.852044 25.085808 89.524874 67.352058 -91.527445 0.000000 0.000000 0.000000 
